<?xml version="1.0" encoding="utf-8"?>
<!-- Generator: Adobe Illustrator 23.0.2, SVG Export Plug-In . SVG Version: 6.00 Build 0)  -->
<svg version="1.1" id="Capa_1" xmlns="http://www.w3.org/2000/svg" xmlns:xlink="http://www.w3.org/1999/xlink" x="0px" y="0px"
	 viewBox="0 0 1920 1080" style="enable-background:new 0 0 1920 1080;" xml:space="preserve">
<style type="text/css">
	.st0{fill:#1786FF;}
</style>
<g>
	<path d="M50.28,440.43h98.85v45.12c14.78-18.43,29.73-31.6,44.86-39.51c15.13-7.91,33.55-11.87,55.29-11.87
		c29.38,0,52.38,8.74,68.99,26.21c16.6,17.47,24.91,44.47,24.91,80.98v176.05H236.5V565.1c0-17.38-3.22-29.69-9.65-36.91
		c-6.43-7.21-15.48-10.82-27.12-10.82c-12.87,0-23.3,4.87-31.3,14.61c-8,9.74-12,27.22-12,52.42v133.01H50.28V440.43z"/>
	<path d="M445.44,579.71c0-42.25,14.25-77.07,42.77-104.46c28.52-27.39,67.03-41.08,115.54-41.08c55.46,0,97.37,16.08,125.71,48.25
		c22.78,25.91,34.17,57.81,34.17,95.72c0,42.6-14.13,77.51-42.38,104.72c-28.26,27.22-67.33,40.82-117.24,40.82
		c-44.51,0-80.5-11.3-107.98-33.91C462.31,661.78,445.44,625.09,445.44,579.71z M551.86,579.45c0,24.69,5,42.95,15,54.77
		c10,11.83,22.56,17.74,37.69,17.74c15.3,0,27.86-5.82,37.69-17.47c9.82-11.65,14.74-30.34,14.74-56.07
		c0-23.99-4.96-41.86-14.87-53.6c-9.91-11.74-22.17-17.6-36.77-17.6c-15.48,0-28.26,5.96-38.34,17.87
		C556.9,536.98,551.86,555.1,551.86,579.45z"/>
	<path class="st0" d="M48,276.65h1825v108.84h-853.02v331.93h-136.2V385.49H48V276.65z"/>
	<path d="M1477.9,605.27h-212.82c1.91,17.04,6.52,29.73,13.82,38.08c10.26,12,23.64,18,40.17,18c10.43,0,20.34-2.61,29.73-7.82
		c5.74-3.3,11.91-9.13,18.52-17.47l104.59,9.65c-16,27.82-35.3,47.77-57.9,59.86c-22.6,12.08-55.03,18.13-97.28,18.13
		c-36.69,0-65.55-5.18-86.59-15.52c-21.04-10.34-38.47-26.77-52.29-49.29c-13.82-22.52-20.73-48.99-20.73-79.42
		c0-43.3,13.86-78.33,41.6-105.11c27.73-26.77,66.03-40.17,114.89-40.17c39.64,0,70.94,6,93.89,18c22.95,12,40.43,29.39,52.42,52.16
		c12,22.78,18,52.42,18,88.94V605.27z M1369.93,554.41c-2.09-20.51-7.61-35.21-16.56-44.08c-8.96-8.87-20.73-13.3-35.34-13.3
		c-16.87,0-30.34,6.69-40.43,20.08c-6.43,8.35-10.52,20.78-12.26,37.3H1369.93z"/>
	<path d="M1770.33,608.92l100.93,11.48c-5.57,21.04-14.7,39.25-27.39,54.64c-12.69,15.39-28.91,27.35-48.64,35.86
		c-19.73,8.52-44.82,12.78-75.24,12.78c-29.39,0-53.86-2.74-73.42-8.21s-36.38-14.33-50.47-26.58
		c-14.08-12.25-25.13-26.62-33.12-43.12c-8-16.5-12-38.39-12-65.67c0-28.49,4.86-52.2,14.61-71.14
		c7.13-13.9,16.86-26.36,29.21-37.39c12.35-11.03,25.04-19.24,38.08-24.63c20.69-8.51,47.21-12.77,79.55-12.77
		c45.21,0,79.68,8.09,103.41,24.26s40.38,39.82,49.95,70.94l-99.89,13.3c-3.13-11.82-8.83-20.73-17.08-26.73
		c-8.26-6-19.34-9-33.25-9c-17.57,0-31.78,6.29-42.64,18.88c-10.87,12.58-16.3,31.63-16.3,57.15c0,22.74,5.39,40.01,16.17,51.81
		c10.78,11.8,24.52,17.7,41.21,17.7c13.91,0,25.6-3.56,35.08-10.69C1758.55,634.65,1765.64,623.7,1770.33,608.92z"/>
</g>
<rect x="48" y="781.02" class="st0" width="1825" height="22.26"/>
<g>
</g>
<g>
</g>
<g>
</g>
<g>
</g>
<g>
</g>
<g>
</g>
<g>
</g>
<g>
</g>
<g>
</g>
<g>
</g>
<g>
</g>
<g>
</g>
<g>
</g>
<g>
</g>
<g>
</g>
</svg>
